<region>
sample=$SAMPLE_DIR/ride_istanbul_agop_sigature_edge_a_01.wav
hivel=14
seq_length=2

<region>
sample=$SAMPLE_DIR/ride_istanbul_agop_sigature_edge_b_01.wav
hivel=14
seq_length=2
seq_position=2

<region>
sample=$SAMPLE_DIR/ride_istanbul_agop_sigature_edge_a_02.wav
lovel=15
hivel=28
seq_length=2

<region>
sample=$SAMPLE_DIR/ride_istanbul_agop_sigature_edge_b_02.wav
lovel=15
hivel=28
seq_length=2
seq_position=2

<region>
sample=$SAMPLE_DIR/ride_istanbul_agop_sigature_edge_a_03.wav
lovel=29
hivel=42
seq_length=2

<region>
sample=$SAMPLE_DIR/ride_istanbul_agop_sigature_edge_b_03.wav
lovel=29
hivel=42
seq_length=2
seq_position=2

<region>
sample=$SAMPLE_DIR/ride_istanbul_agop_sigature_edge_a_04.wav
lovel=43
hivel=56
seq_length=2

<region>
sample=$SAMPLE_DIR/ride_istanbul_agop_sigature_edge_b_04.wav
lovel=43
hivel=56
seq_length=2
seq_position=2

<region>
sample=$SAMPLE_DIR/ride_istanbul_agop_sigature_edge_a_05.wav
lovel=57
hivel=70
seq_length=2

<region>
sample=$SAMPLE_DIR/ride_istanbul_agop_sigature_edge_b_05.wav
lovel=57
hivel=70
seq_length=2
seq_position=2

<region>
sample=$SAMPLE_DIR/ride_istanbul_agop_sigature_edge_a_06.wav
lovel=71
hivel=84
seq_length=2

<region>
sample=$SAMPLE_DIR/ride_istanbul_agop_sigature_edge_b_06.wav
lovel=71
hivel=84
seq_length=2
seq_position=2

<region>
sample=$SAMPLE_DIR/ride_istanbul_agop_sigature_edge_a_07.wav
lovel=85
hivel=98
seq_length=2

<region>
sample=$SAMPLE_DIR/ride_istanbul_agop_sigature_edge_b_07.wav
lovel=85
hivel=98
seq_length=2
seq_position=2

<region>
sample=$SAMPLE_DIR/ride_istanbul_agop_sigature_edge_a_08.wav
lovel=99
hivel=112
seq_length=2

<region>
sample=$SAMPLE_DIR/ride_istanbul_agop_sigature_edge_b_08.wav
lovel=99
hivel=112
seq_length=2
seq_position=2

<region>
sample=$SAMPLE_DIR/ride_istanbul_agop_sigature_edge_a_09.wav
lovel=113
seq_length=2

<region>
sample=$SAMPLE_DIR/ride_istanbul_agop_sigature_edge_b_09.wav
lovel=113
seq_length=2
seq_position=2
